PathFileType	4	(X/Y/Z)	s07c0103.trc
DataRate	CameraRate	NumFrames	NumMarkers	Units	OrigDataRate	OrigDataStartFrame	OrigNumFrames
200	200	4	47	mm	200	0	2000
Frame#	Time	racr			lacr			c7			jug			rlel			rdr			llel			ldr			s2			lic			ric			lasi			rasi			rpsi			lpsi			rgt			lgt			rth1			rth2			rth3			rth4			rlfc			rmfc			rsh1			rsh2			rsh3			rsh4			rcal			rtoe			rmt5			lth1			lth2			lth4			lth3			llfc			lmfc			lsh1			lsh2			lsh3			lsh4			llmal			lcal			ltoe			lmt5			SBIKE			LBIKE			RBIKE			
		X1	Y1	Z1	X2	Y2	Z2	X3	Y3	Z3	X4	Y4	Z4	X5	Y5	Z5	X6	Y6	Z6	X7	Y7	Z7	X8	Y8	Z8	X9	Y9	Z9	X10	Y10	Z10	X11	Y11	Z11	X12	Y12	Z12	X13	Y13	Z13	X14	Y14	Z14	X15	Y15	Z15	X16	Y16	Z16	X17	Y17	Z17	X18	Y18	Z18	X19	Y19	Z19	X20	Y20	Z20	X21	Y21	Z21	X22	Y22	Z22	X23	Y23	Z23	X24	Y24	Z24	X25	Y25	Z25	X26	Y26	Z26	X27	Y27	Z27	X28	Y28	Z28	X29	Y29	Z29	X30	Y30	Z30	X31	Y31	Z31	X32	Y32	Z32	X33	Y33	Z33	X34	Y34	Z34	X35	Y35	Z35	X36	Y36	Z36	X37	Y37	Z37	X38	Y38	Z38	X39	Y39	Z39	X40	Y40	Z40	X41	Y41	Z41	X42	Y42	Z42	X43	Y43	Z43	X44	Y44	Z44	X45	Y45	Z45	X46	Y46	Z46	X47	Y47	Z47	
0	0.0000	450.816344	1407.258207	-99.052651	438.216518	1389.983227	-389.911820	425.134233	1438.920958	-246.210573	382.328400	1300.782883	-239.470419	495.303351	1083.927446	24.142196	718.380618	911.528959	-76.158986	480.047464	1073.570748	-504.493341	718.476527	910.513355	-419.994342	-146.784534	1201.833305	-246.136045	20.910785	1247.726324	-388.415067	26.702682	1236.138059	-95.246448	48.698606	1167.446976	-363.985363	35.976099	1180.636442	-113.995543	-118.192412	1239.822506	-194.778364	-104.034068	1249.606237	-301.523693	-35.987273	1120.163949	-49.833863	-45.630839	1094.799160	-420.134481	107.581738	1060.475815	-50.726051	191.713077	1042.104568	-64.914012	259.262701	989.736932	-63.525293	203.698904	1072.193576	-82.818504	373.734986	910.168767	-99.750565	366.719281	893.464507	-204.523887	328.490176	774.211462	-74.078057	318.983518	686.764314	-92.517479	272.031882	614.218413	-86.202270	334.381830	685.445536	-129.400871	150.487364	449.846042	-111.726957	438.785865	417.395531	-131.213327	362.001829	387.764529	-58.875485	20.994876	991.682589	-426.549629	95.263515	943.861604	-431.956679	122.310187	967.621124	-425.729052	136.519941	865.008094	-429.180607	242.019203	716.464650	-396.975197	234.399406	701.733939	-299.523403	148.817130	598.496513	-415.395161	111.846602	523.781811	-393.476810	39.905935	469.753422	-400.450980	116.502730	525.718904	-351.772447	-52.415806	374.657873	-395.805024	-132.614030	363.490497	-361.203222	129.610937	241.300353	-359.859691	45.399546	247.391319	-422.932430	-262.626657	965.298770	-237.225569	-82.922965	79.296165	-436.773354	-82.645087	78.816316	-39.128723	
1	0.0050	450.796899	1407.226214	-99.028704	438.219314	1389.944912	-389.910302	425.132360	1438.883163	-246.218263	382.308906	1300.763766	-239.440392	495.266006	1083.883351	24.126810	718.347098	911.537929	-76.178002	480.032206	1073.556495	-504.527958	718.472276	910.518494	-419.993070	-146.770794	1201.838461	-246.170617	20.844823	1247.669703	-388.538289	26.687789	1236.141946	-95.235921	48.714243	1167.420238	-364.010880	35.979544	1180.605367	-113.990169	-118.240185	1239.866950	-194.752210	-104.040639	1249.623825	-301.547777	-35.984151	1120.150408	-49.832955	-45.648467	1094.813504	-420.165705	107.593824	1060.474452	-50.715521	191.715215	1042.118216	-64.866347	259.228194	989.792829	-63.470108	203.705701	1072.215420	-82.781629	373.741982	910.198507	-99.654968	366.740653	893.498980	-204.468660	328.521695	774.214048	-74.038201	319.031443	686.761737	-92.487606	272.062578	614.237538	-86.162523	334.420263	685.479069	-129.341965	150.547983	449.872282	-111.736928	438.809010	417.347812	-131.212248	362.031974	387.720661	-58.895758	20.972812	991.668380	-426.554617	95.119416	944.159789	-432.022690	122.130213	968.042598	-425.976976	136.494040	864.959681	-429.200643	241.980824	716.447880	-396.992465	234.373665	701.718790	-299.549718	148.757195	598.499975	-415.409459	111.787697	523.784669	-393.484221	39.856833	469.676800	-400.409493	116.433714	525.697616	-351.777379	-52.506184	374.690049	-395.785154	-132.678542	363.474220	-361.204372	129.573841	241.387068	-359.876981	45.369513	247.441125	-422.918100	-262.610486	965.292470	-237.233163	-82.940531	79.251554	-436.768903	-82.666851	78.830612	-39.130439	
2	0.0100	450.779064	1407.197262	-99.030872	438.220980	1389.914286	-389.908902	425.140036	1438.839348	-246.242550	382.273082	1300.740755	-239.434231	495.212678	1083.816594	24.115890	718.318270	911.532966	-76.186257	480.028183	1073.537314	-504.542111	718.482693	910.530652	-419.998124	-146.771215	1201.834098	-246.167454	20.799295	1247.644098	-388.535329	26.668945	1236.165961	-95.251813	48.689465	1167.438699	-364.020446	35.981830	1180.622474	-114.000882	-118.208881	1239.827952	-194.783195	-104.054610	1249.613115	-301.544479	-35.986041	1120.158028	-49.840240	-45.677822	1094.811417	-420.166967	107.567414	1060.480953	-50.687266	191.688341	1042.152500	-64.818069	259.222049	989.802208	-63.415758	203.707689	1072.231353	-82.737460	373.740363	910.221057	-99.558020	366.940552	893.108218	-204.551689	328.541529	774.224364	-73.981637	319.048268	686.790592	-92.445206	272.108880	614.241650	-86.147713	334.441120	685.496748	-129.306566	150.562943	449.917300	-111.727001	438.833392	417.312212	-131.213962	362.033143	387.684066	-58.892991	20.947869	991.664952	-426.561861	95.086489	944.127580	-432.027201	122.096715	968.000096	-425.966635	136.437962	864.944342	-429.221416	241.951355	716.431872	-396.994230	234.345404	701.698060	-299.578807	148.711063	598.483894	-415.424896	111.736951	523.778872	-393.484023	39.800566	469.681474	-400.399598	116.389039	525.693382	-351.798480	-52.556194	374.708949	-395.768512	-132.731848	363.436950	-361.189478	129.557085	241.442447	-359.881210	45.335854	247.469126	-422.927459	-262.623547	965.290109	-237.231198	-82.940566	79.273196	-436.791853	-82.624401	78.818175	-39.140665	
3	0.0150	450.729074	1407.588493	-98.830827	438.148501	1387.892782	-382.392439	425.001180	1438.491131	-246.049435	382.272879	1300.756679	-239.441082	494.938245	1084.398004	24.641048	718.333485	911.539857	-76.174360	480.285935	1073.710250	-505.160043	718.467422	910.548714	-420.017336	-146.792861	1201.832108	-246.158681	15.191364	1242.166590	-373.457553	26.399844	1236.440124	-95.302638	48.689573	1167.448201	-364.022494	36.003131	1180.626869	-114.013427	-117.714927	1239.779674	-195.027464	-103.940266	1249.864022	-302.002675	-35.986621	1120.164866	-49.827469	-45.702782	1094.821650	-420.181639	106.749209	1058.983909	-51.135694	191.684627	1042.163491	-64.780006	259.206942	989.822048	-63.359007	203.685256	1071.650859	-83.381630	373.735210	910.234745	-99.462401	368.478431	891.809184	-199.479100	328.552769	774.221190	-73.931517	318.888427	686.689588	-92.325216	272.157446	614.120743	-86.090951	334.592785	685.479055	-129.230593	150.589701	449.933461	-111.737737	438.618556	417.688539	-131.074641	362.280830	387.300765	-58.930621	20.905354	991.667630	-426.575160	95.051249	944.122158	-432.032423	121.580713	965.402732	-419.295377	136.399592	864.916800	-429.241692	241.919341	716.417973	-397.004978	234.303820	701.697114	-299.594436	148.644717	598.478995	-415.432841	111.746476	523.660423	-393.544654	39.439760	470.180911	-400.447972	116.999753	525.591435	-351.700110	-52.604866	374.702650	-395.750975	-132.732512	363.689378	-361.400736	129.527483	241.585694	-360.052189	45.312869	247.486922	-422.931737	-262.734343	965.326343	-237.722033	-82.943407	79.277561	-436.800334	-82.628530	78.837531	-39.136802	
